<svg xmlns="http://www.w3.org/2000/svg" xmlns:xlink="http://www.w3.org/1999/xlink" aria-hidden="true" role="img" class="iconify iconify--logos" width="31.88" height="32" preserveAspectRatio="xMidYMid meet" viewBox="0 0 256 257"><defs><linearGradient id="IconifyId1813084fe35e5d1111e70" x1="-.828" x2=".478" y1=".786" y2="1.786"><stop offset="0" stop-color="#41D1FF"/><stop offset="1" stop-color="#BD34FE"/></linearGradient></defs><path fill="url(#IconifyId1813084fe35e5d1111e70)" d="M239.188 32.273c-9.095-12.592-24.435-19.079-39.262-16.561L34.79 23.778c-11.093 1.847-19.71 9.511-22.652 19.563L-.204 219.79c-3.125 11.354 1.072 23.608 10.855 31.262l.001.002c9.782 7.654 22.864 8.348 33.355 1.79l15.49-10.351c8.66-5.784 19.962-5.931 28.776-.405l32.983 21.708c10.23 6.734 23.49 6.734 33.72 0l32.983-21.708c8.814-5.526 20.116-5.379 28.776.405l15.49 10.351c10.491 6.55 23.573 5.856 33.355-1.79l.001-.002c9.783-7.654 13.98-19.908 10.855-31.262l12.245-176.448c2.942-10.052-5.678-17.716-16.771-19.563Z"/><path fill="#FFF" d="M127.993 151.385a23.433 23.433 0 0 1-11.717-3.183l-71.496-40.54c-5.843-3.322-5.843-10.065 0-13.388l71.496-40.538c5.767-3.276 12.973-3.276 18.74 0l71.497 40.538c5.842 3.323 5.842 10.066 0 13.388l-71.497 40.54c-2.907 1.65-6.145 2.484-9.379 2.484c-3.235 0-6.472-.833-9.379-2.483Z"/></svg>
